:FULLY-SPECIFIED
:FORCE-ALL-JOINTS-BE-3DOF
:DEGREES
1
root 6.24314 16.836 -28.1378 9.0217 -2.52979 -3.05774
lfemur -20.3712 2.30257 -19.9954
ltibia 35.927 0 0
lfoot -38.654 3.93715 0
ltoes 38.9541 0 0
rfemur -19.4747 0.22019 19.5256
rtibia 36.0342 0 0
rfoot -30.3779 -10.4967 0
rtoes 21.4483 0 0
lowerback -2.05144 3.66971 -5.03766
upperback -2.66728 5.00355 3.49279
thorax -2.36397 2.67023 6.42441
lowerneck -9.84699 -2.36864 1.94815
upperneck -1.37933 -3.32542 -1.65382
head 1.16433 -1.69823 -0.975663
lclavicle -1.65488e-14 -3.69739e-14 0
lhumerus -41.7253 -10.8128 99.8312
lradius 34.5094 0 0
lwrist 2.17521 0 0
lhand -10.5949 9.65639 0
lfingers 7.12502 0 0
lthumb 15.4107 39.062 0
rclavicle -1.65488e-14 -3.69739e-14 0
rhumerus -43.273 -4.86223 -84.2703
rradius 40.4763 0 0
rwrist 9.89469 0 0
rhand -23.7965 -22.476 0
rfingers 7.12502 0 0
rthumb 2.67393 -52.439 0
2
root 6.24258 16.8361 -28.1377 9.02368 -2.52816 -3.0559
lfemur -20.3711 2.30091 -19.9951
ltibia 35.9233 -0 0
lfoot -38.6481 3.93779 1.87109e-05
ltoes 38.9475 -0 0
rfemur -19.4702 0.231186 19.5253
rtibia 36.0243 -0 0
rfoot -30.3721 -10.5113 -0.000421262
rtoes 21.4304 -0 0
lowerback -2.05785 3.66706 -5.02928
upperback -2.66575 5.00015 3.48697
thorax -2.35745 2.66792 6.41408
lowerneck -9.84639 -2.36715 1.94992
upperneck -1.38217 -3.32372 -1.64878
head 1.16339 -1.6973 -0.974289
lclavicle -1.6472e-14 -3.68894e-14 -3.2166e-32
lhumerus -41.7249 -10.8168 99.8253
lradius 34.5195 -0 0
lwrist 2.18304 0 0
lhand -10.5972 9.64553 0.000125608
lfingers 7.12502 -0 0
lthumb 15.4085 39.0513 0.000119176
rclavicle -1.6472e-14 -3.68894e-14 -3.2166e-32
rhumerus -43.2676 -4.86284 -84.2799
rradius 40.4735 -0 0
rwrist 9.89662 0 0
rhand -23.8016 -22.4722 -9.80193e-05
rfingers 7.12502 -0 0
rthumb 2.66896 -52.4352 -9.39483e-05
3
root 6.24095 16.8364 -28.1374 9.02949 -2.52337 -3.05052
lfemur -20.3709 2.29603 -19.9941
ltibia 35.9124 -0 0
lfoot -38.6308 3.93967 7.32279e-05
ltoes 38.9281 -0 0
rfemur -19.4569 0.263448 19.5243
rtibia 35.9953 -0 0
rfoot -30.3551 -10.5543 -0.00164865
rtoes 21.3778 -0 0
lowerback -2.07664 3.65929 -5.00467
upperback -2.66125 4.99018 3.46989
thorax -2.3383 2.66113 6.38378
lowerneck -9.84462 -2.36277 1.95509
upperneck -1.3905 -3.31874 -1.634
head 1.16062 -1.69456 -0.970259
lclavicle -1.62468e-14 -3.66417e-14 -1.25885e-31
lhumerus -41.7236 -10.8286 99.808
lradius 34.5492 -0 0
lwrist 2.206 0 0
lhand -10.6041 9.61366 0.000491581
lfingers 7.12502 -0 0
lthumb 15.4019 39.0199 0.000466408
rclavicle -1.62468e-14 -3.66417e-14 -1.25885e-31
rhumerus -43.2518 -4.86463 -84.3079
rradius 40.4654 -0 0
rwrist 9.90228 0 0
rhand -23.8167 -22.4609 -0.000383613
rfingers 7.12502 -0 0
rthumb 2.65439 -52.424 -0.000367681
4
root 6.2383 16.837 -28.137 9.03893 -2.51559 -3.04176
lfemur -20.3705 2.2881 -19.9925
ltibia 35.8947 -0 0
lfoot -38.6027 3.94272 0.00016063
ltoes 38.8965 -0 0
rfemur -19.4352 0.315884 19.5227
rtibia 35.9481 -0 0
rfoot -30.3275 -10.6241 -0.00361642
rtoes 21.2923 -0 0
lowerback -2.1072 3.64669 -4.96468
upperback -2.65393 4.97397 3.44213
thorax -2.30717 2.65013 6.33451
lowerneck -9.84175 -2.35566 1.96351
upperneck -1.40404 -3.31065 -1.60998
head 1.15612 -1.69011 -0.963708
lclavicle -1.58808e-14 -3.62389e-14 -2.76132e-31
lhumerus -41.7214 -10.8477 99.7799
lradius 34.5973 -0 0
lwrist 2.24332 0 0
lhand -10.6152 9.56186 0.00107831
lfingers 7.12502 -0 0
lthumb 15.3912 38.9689 0.00102309
rclavicle -1.58808e-14 -3.62389e-14 -2.76132e-31
rhumerus -43.2262 -4.86753 -84.3534
rradius 40.4521 -0 0
rwrist 9.91148 0 0
rhand -23.8413 -22.4426 -0.000841484
rfingers 7.12502 -0 0
rthumb 2.6307 -52.4058 -0.000806534
5
root 6.23469 16.8377 -28.1363 9.05181 -2.50498 -3.02982
lfemur -20.37 2.27728 -19.9903
ltibia 35.8705 -0 0
lfoot -38.5644 3.94687 0.000277433
ltoes 38.8534 -0 0
rfemur -19.4057 0.387406 19.5206
rtibia 35.8837 -0 0
rfoot -30.2899 -10.7193 -0.00624612
rtoes 21.1756 -0 0
lowerback -2.14889 3.62952 -4.91013
upperback -2.64394 4.95187 3.40426
thorax -2.26471 2.63517 6.26732
lowerneck -9.83784 -2.34597 1.97499
upperneck -1.42251 -3.29959 -1.57721
head 1.14999 -1.68403 -0.954774
lclavicle -1.53816e-14 -3.56896e-14 -4.76915e-31
lhumerus -41.7185 -10.8738 99.7416
lradius 34.6631 -0 0
lwrist 2.29423 0 0
lhand -10.6303 9.4912 0.00186239
lfingers 7.12502 -0 0
lthumb 15.3766 38.8993 0.00176702
rclavicle -1.53816e-14 -3.56896e-14 -4.76915e-31
rhumerus -43.1912 -4.87144 -84.4156
rradius 40.434 -0 0
rwrist 9.92404 0 0
rhand -23.8747 -22.4176 -0.00145337
rfingers 7.12502 -0 0
rthumb 2.59839 -52.3811 -0.00139301
6
root 6.23017 16.8386 -28.1356 9.06793 -2.49171 -3.01486
lfemur -20.3693 2.26374 -19.9876
ltibia 35.8403 -0 0
lfoot -38.5164 3.95208 0.000419701
ltoes 38.7995 -0 0
rfemur -19.3688 0.476922 19.5179
rtibia 35.8032 -0 0
rfoot -30.2427 -10.8384 -0.00944923
rtoes 21.0297 -0 0
lowerback -2.20109 3.6081 -4.84183
upperback -2.63141 4.92422 3.35686
thorax -2.21153 2.61651 6.1832
lowerneck -9.83294 -2.33383 1.98936
upperneck -1.44561 -3.28575 -1.53621
head 1.14231 -1.67643 -0.943594
lclavicle -1.47568e-14 -3.50021e-14 -7.21469e-31
lhumerus -41.7149 -10.9065 99.6937
lradius 34.7453 -0 0
lwrist 2.35795 0 0
lhand -10.6493 9.40277 0.00281742
lfingers 7.12502 -0 0
lthumb 15.3583 38.8122 0.00267314
rclavicle -1.47568e-14 -3.50021e-14 -7.21469e-31
rhumerus -43.1474 -4.87628 -84.4933
rradius 40.4114 -0 0
rwrist 9.93975 0 0
rhand -23.9166 -22.3864 -0.00219867
rfingers 7.12502 -0 0
rthumb 2.55795 -52.35 -0.00210735
7
root 6.22479 16.8397 -28.1346 9.08711 -2.47593 -2.99708
lfemur -20.3685 2.24764 -19.9843
ltibia 35.8043 -0 0
lfoot -38.4593 3.95827 0.000583164
ltoes 38.7355 -0 0
rfemur -19.3249 0.583344 19.5149
rtibia 35.7074 -0 0
rfoot -30.1867 -10.98 -0.0131296
rtoes 20.8562 -0 0
lowerback -2.26318 3.58271 -4.76061
upperback -2.61649 4.89136 3.3005
thorax -2.14828 2.59443 6.08317
lowerneck -9.8271 -2.31941 2.00645
upperneck -1.47305 -3.26926 -1.48747
head 1.13319 -1.66739 -0.930303
lclavicle -1.40139e-14 -3.41848e-14 -1.00245e-30
lhumerus -41.7105 -10.9453 99.6367
lradius 34.8431 -0 0
lwrist 2.4337 0 0
lhand -10.6718 9.29765 0.00391472
lfingers 7.12502 -0 0
lthumb 15.3366 38.7087 0.00371424
rclavicle -1.40139e-14 -3.41848e-14 -1.00245e-30
rhumerus -43.0954 -4.88197 -84.5858
rradius 40.3845 -0 0
rwrist 9.95842 0 0
rhand -23.9664 -22.3492 -0.00305501
rfingers 7.12502 -0 0
rthumb 2.50987 -52.3132 -0.00292811
8
root 6.21861 16.841 -28.1336 9.10914 -2.45782 -2.97665
lfemur -20.3676 2.22916 -19.9806
ltibia 35.763 -0 0
lfoot -38.3938 3.96538 0.000763312
ltoes 38.6619 -0 0
rfemur -19.2745 0.705582 19.5115
rtibia 35.5974 -0 0
rfoot -30.1223 -11.1427 -0.0171858
rtoes 20.6569 -0 0
lowerback -2.33453 3.55366 -4.6673
upperback -2.59931 4.85363 3.23576
thorax -2.07558 2.56921 5.96826
lowerneck -9.8204 -2.30284 2.02608
upperneck -1.50456 -3.2503 -1.4315
head 1.12271 -1.65701 -0.915039
lclavicle -1.31607e-14 -3.3246e-14 -1.3121e-30
lhumerus -41.7054 -10.9899 99.5711
lradius 34.9554 -0 0
lwrist 2.5207 0 0
lhand -10.6977 9.1769 0.00512404
lfingers 7.12502 -0 0
lthumb 15.3117 38.5898 0.00486164
rclavicle -1.31607e-14 -3.3246e-14 -1.3121e-30
rhumerus -43.0356 -4.88839 -84.692
rradius 40.3537 -0 0
rwrist 9.97987 0 0
rhand -24.0235 -22.3065 -0.00399876
rfingers 7.12502 -0 0
rthumb 2.45464 -52.2708 -0.00383266
9
root 6.21169 16.8424 -28.1324 9.13382 -2.43753 -2.95375
lfemur -20.3666 2.20844 -19.9764
ltibia 35.7168 -0 0
lfoot -38.3204 3.97335 0.000955502
ltoes 38.5794 -0 0
rfemur -19.218 0.842546 19.5078
rtibia 35.4741 -0 0
rfoot -30.0501 -11.325 -0.0215134
rtoes 20.4336 -0 0
lowerback -2.41454 3.52125 -4.5627
upperback -2.58001 4.81139 3.16321
thorax -1.99407 2.54112 5.83947
lowerneck -9.81288 -2.28428 2.04807
upperneck -1.53985 -3.22901 -1.3688
head 1.11097 -1.64537 -0.897939
lclavicle -1.22048e-14 -3.21941e-14 -1.64244e-30
lhumerus -41.6996 -11.0399 99.4977
lradius 35.0813 -0 0
lwrist 2.61819 0 0
lhand -10.7267 9.04164 0.00641393
lfingers 7.12502 -0 0
lthumb 15.2837 38.4566 0.00608548
rclavicle -1.22048e-14 -3.21941e-14 -1.64244e-30
rhumerus -42.9686 -4.89546 -84.811
rradius 40.319 -0 0
rwrist 10.0039 0 0
rhand -24.0876 -22.2587 -0.00500559
rfingers 7.12502 -0 0
rthumb 2.39277 -52.2234 -0.00479767
10
root 6.20408 16.844 -28.1311 9.16098 -2.41524 -2.92856
lfemur -20.3655 2.18567 -19.9718
ltibia 35.6659 -0 0
lfoot -38.2397 3.98211 0.00115504
ltoes 38.4888 -0 0
rfemur -19.1559 0.993147 19.504
rtibia 35.3386 -0 0
rfoot -29.9708 -11.5255 -0.0260067
rtoes 20.1881 -0 0
lowerback -2.50255 3.48578 -4.44767
upperback -2.55874 4.76496 3.08343
thorax -1.90438 2.51044 5.69781
lowerneck -9.8046 -2.26388 2.07225
upperneck -1.57861 -3.20556 -1.29988
head 1.09807 -1.63257 -0.87914
lclavicle -1.11536e-14 -3.10375e-14 -1.98541e-30
lhumerus -41.6932 -11.0948 99.417
lradius 35.2197 -0 0
lwrist 2.72539 0 0
lhand -10.7586 8.89288 0.00775347
lfingers 7.12502 -0 0
lthumb 15.253 38.3101 0.00735641
rclavicle -1.11536e-14 -3.10375e-14 -1.98541e-30
rhumerus -42.8948 -4.90307 -84.9419
rradius 40.281 -0 0
rwrist 10.0303 0 0
rhand -24.1581 -22.2061 -0.00605093
rfingers 7.12502 -0 0
rthumb 2.32473 -52.1712 -0.00579958
11
root 6.19584 16.8456 -28.1296 9.19041 -2.3911 -2.90126
lfemur -20.3644 2.16099 -19.9668
ltibia 35.6108 -0 0
lfoot -38.1522 3.99159 0.00135727
ltoes 38.3905 -0 0
rfemur -19.0887 1.1563 19.4999
rtibia 35.1918 -0 0
rfoot -29.8848 -11.7426 -0.0305609
rtoes 19.9221 -0 0
lowerback -2.59799 3.44756 -4.32298
upperback -2.53561 4.7147 2.99699
thorax -1.80713 2.47746 5.54431
lowerneck -9.79563 -2.24178 2.09845
upperneck -1.62058 -3.18011 -1.22523
head 1.0841 -1.6187 -0.858779
lclavicle -1.0015e-14 -2.97847e-14 -2.333e-30
lhumerus -41.6862 -11.1543 99.3295
lradius 35.3696 -0 0
lwrist 2.84151 0 0
lhand -10.7931 8.73173 0.00911113
lfingers 7.12502 -0 0
lthumb 15.2197 38.1513 0.00864453
rclavicle -1.0015e-14 -2.97847e-14 -2.333e-30
rhumerus -42.815 -4.91112 -85.0836
rradius 40.2398 -0 0
rwrist 10.059 0 0
rhand -24.2344 -22.1491 -0.00711038
rfingers 7.12502 -0 0
rthumb 2.25102 -52.1146 -0.00681502
